<svg xmlns="http://www.w3.org/2000/svg" version="1.1" id="svg2" xml:space="preserve" viewBox="221.76 354.24 996.4799999999999 728.64" style="max-height: 500px" width="996.4799999999999" height="728.64"><defs id="defs6"/><g id="g10" transform="matrix(1.3333333,0,0,-1.3333333,0,1440)"><g id="g12" transform="scale(0.1)"><path d="m 2707.94,8057.19 h -642.88 c -87.1,0 -159.93,-29.36 -218.49,-87.88 -58.61,-58.62 -87.89,-131.47 -87.89,-218.47 V 4847.78 c 0,-87.12 29.28,-159.93 87.89,-218.45 58.56,-58.67 131.39,-87.92 218.49,-87.92 h 642.88 c 87.04,0 159.86,29.25 218.5,87.92 58.53,58.52 87.88,131.33 87.88,218.45 v 2903.06 c 0,87 -29.35,159.85 -87.88,218.47 -58.64,58.52 -131.46,87.88 -218.5,87.88 z m -195.88,-2963.3 c 0,-33.52 -8.39,-58.62 -25.11,-75.35 -16.79,-16.78 -40.18,-25.09 -70.31,-25.09 h -55.25 c -33.51,0 -58.62,8.31 -75.34,25.09 -16.79,16.73 -25.11,41.83 -25.11,75.35 v 2410.85 c 0,33.39 8.32,58.52 25.11,75.31 16.72,16.74 41.83,25.14 75.34,25.14 h 55.25 c 33.43,0 57.75,-8.4 72.83,-25.14 15.06,-16.79 22.59,-41.92 22.59,-75.31 V 5093.89" style="fill:#000000;fill-opacity:1;fill-rule:nonzero;stroke:none" id="path14"/><path d="m 4264.92,8057.19 h -145.64 c -87.12,0 -152.41,-9.23 -195.88,-27.6 -30.94,-13.1 -66.14,-37.81 -105.48,-73.67 v 101.27 H 3315.66 V 4541.41 h 502.26 v 2762.4 95.43 c 0,30.14 4.15,56.02 12.56,77.86 8.32,21.75 24.25,44.34 47.71,67.79 l 15.06,15.08 c 16.72,16.7 34.3,28.39 52.75,35.15 18.37,6.68 35.93,10.07 52.73,10.07 h 5.02 c 20.09,0 35.95,-7.56 47.71,-22.64 11.69,-15.07 17.58,-34.36 17.58,-57.74 v -2983.4 h 502.26 v 3209.43 c 0,87 -29.35,159.85 -87.89,218.47 -58.62,58.52 -131.46,87.88 -218.49,87.88" style="fill:#000000;fill-opacity:1;fill-rule:nonzero;stroke:none" id="path16"/><path d="m 4822.42,7605.19 h 336.51 V 5545.82 h 502.25 v 2059.37 h 316.42 v 452 H 4822.42 v -452" style="fill:#000000;fill-opacity:1;fill-rule:nonzero;stroke:none" id="path18"/><path d="m 7177.94,8057.19 h -642.88 c -87.11,0 -159.93,-29.36 -218.49,-87.88 -58.61,-58.62 -87.89,-131.47 -87.89,-218.47 V 4847.78 c 0,-87.12 29.28,-159.93 87.89,-218.45 58.56,-58.67 131.38,-87.92 218.49,-87.92 h 642.88 c 87.03,0 159.86,29.25 218.49,87.92 58.54,58.52 87.89,131.33 87.89,218.45 v 2903.06 c 0,87 -29.35,159.85 -87.89,218.47 -58.63,58.52 -131.46,87.88 -218.49,87.88 z m -195.88,-2963.3 c 0,-33.52 -8.39,-58.62 -25.11,-75.35 -16.79,-16.78 -40.18,-25.09 -70.31,-25.09 h -55.25 c -33.51,0 -58.62,8.31 -75.34,25.09 -16.79,16.73 -25.11,41.83 -25.11,75.35 v 2410.85 c 0,33.39 8.32,58.52 25.11,75.31 16.72,16.74 41.83,25.14 75.34,25.14 h 55.25 c 33.43,0 57.75,-8.4 72.82,-25.14 15.07,-16.79 22.6,-41.92 22.6,-75.31 V 5093.89" style="fill:#000000;fill-opacity:1;fill-rule:nonzero;stroke:none" id="path20"/><path d="m 8953.41,7969.31 c -58.62,58.52 -131.46,87.88 -218.49,87.88 H 7785.66 V 4541.41 h 502.26 v 1305.86 h 447 c 87.03,0 159.87,29.26 218.49,87.92 58.54,58.53 87.89,131.33 87.89,218.46 v 1597.19 c 0,87 -29.35,159.85 -87.89,218.47 z M 8539.04,6399.76 c 0,-33.53 -8.39,-58.62 -25.11,-75.36 -16.79,-16.78 -40.18,-25.08 -70.32,-25.08 h -155.69 v 1305.87 h 150.67 c 36.81,0 62.79,-7.56 77.86,-22.64 15.05,-15.07 22.59,-41.04 22.59,-77.81 V 6399.76" style="fill:#000000;fill-opacity:1;fill-rule:nonzero;stroke:none" id="path22"/><path d="m 2802.55,2742.82 c -75.75,16.25 -170.42,24.37 -284.04,24.37 H 1758.7 v 24.33 c 18.26,0 36.51,4.39 54.78,13.21 18.25,8.78 33.63,21.95 46.15,39.55 12.5,17.56 18.77,39.88 18.77,66.96 V 4090 c 0,27.71 -6.27,50.37 -18.77,67.97 -12.52,17.56 -27.9,30.77 -46.15,39.55 -18.27,8.78 -36.52,13.2 -54.78,13.2 v 23.33 h 456.5 v -23.33 c -17.6,0 -35.86,-4.42 -54.79,-13.2 -18.94,-8.78 -34.67,-21.99 -47.17,-39.55 -12.52,-17.6 -18.77,-40.26 -18.77,-67.97 V 2803.68 h 186.65 c 137.29,0 206.26,59.2 206.96,177.54 0,43.27 -5.76,83.01 -17.25,119.21 -11.51,36.16 -27.38,72.18 -47.68,108.04 l -77.11,135.9 h 41.6 c 36.52,-65.58 82.69,-140.47 138.47,-224.67 55.79,-84.19 110.41,-159.27 163.83,-225.2 53.41,-65.96 95.01,-104.35 124.77,-115.14 l -12.16,-36.54" style="fill:#000000;fill-opacity:1;fill-rule:nonzero;stroke:none" id="path24"/><path d="m 3421.35,2744.86 c -99.41,0 -192.74,15.22 -279.98,45.66 -87.23,30.43 -163.83,76.41 -229.76,137.95 -65.95,61.54 -117.67,139.15 -155.21,232.83 -37.52,93.64 -56.29,203.4 -56.29,329.18 0,126.46 18.77,236.37 56.29,329.68 37.54,93.34 89.26,170.76 155.21,232.3 65.93,61.53 142.53,107.52 229.76,137.95 87.24,30.44 180.57,45.65 279.98,45.65 99.43,0 192.76,-15.21 279.99,-45.65 87.24,-30.43 163.85,-76.42 229.77,-137.95 65.94,-61.54 117.68,-138.96 155.22,-232.3 37.52,-93.31 56.29,-203.22 56.29,-329.68 0,-125.78 -18.77,-235.54 -56.29,-329.18 -37.54,-93.68 -89.28,-171.29 -155.22,-232.83 -65.92,-61.54 -142.53,-107.52 -229.77,-137.95 -87.23,-30.44 -180.56,-45.66 -279.99,-45.66 z m 63.92,44.65 c 38.54,0 78.44,5.39 119.7,16.22 108.89,29.77 190.71,87.06 245.5,171.93 54.78,84.86 82.17,191.23 82.17,319.06 0,95.36 -15.58,201.5 -46.67,318.5 -50.05,183.99 -120.38,326.18 -211,426.6 -90.64,100.42 -196.47,150.64 -317.52,150.64 -38.54,0 -78.47,-5.44 -119.71,-16.22 -108.89,-30.44 -190.71,-88.25 -245.48,-173.49 -54.79,-85.2 -82.17,-191.38 -82.17,-318.51 0,-96.06 15.54,-201.87 46.67,-317.54 50.04,-183.94 120.36,-326.13 210.98,-426.55 90.64,-100.45 196.47,-150.64 317.53,-150.64" style="fill:#000000;fill-opacity:1;fill-rule:nonzero;stroke:none" id="path26"/><path d="m 5486.73,2766.14 h -538.65 v 24.38 c 18.25,0 34.82,5.57 49.7,16.74 14.87,11.16 22.31,26.86 22.31,47.17 0,19.61 -9.47,42.6 -28.39,68.98 l -414.9,579.24 h -8.14 l -3.03,-484.89 c 0,-56.18 4.73,-100.93 14.19,-134.42 9.48,-33.49 28.41,-57.33 56.82,-71.54 28.41,-14.18 70.66,-21.28 126.81,-21.28 h 119.7 v -24.38 h -653.31 v 24.38 c 27.74,0 50.37,5.57 67.97,16.74 17.59,11.16 30.61,33.11 39.07,65.92 8.45,32.82 12.67,81 12.67,144.58 l 3.05,1074.28 c 0,27.72 -6.27,50.38 -18.77,67.94 -12.52,17.6 -27.9,30.76 -46.15,39.58 -18.27,8.78 -36.52,13.17 -54.79,13.17 v 23.33 h 576.21 c 105.49,0 195.94,-11.83 271.35,-35.49 75.4,-23.67 133.23,-62.25 173.47,-115.63 40.24,-53.43 60.37,-125.13 60.37,-215.09 0,-85.87 -18.61,-155.36 -55.79,-208.45 -37.21,-53.09 -90.3,-92.15 -159.28,-117.16 -68.98,-25.04 -151.83,-38.54 -248.55,-40.59 l 398.7,-558.96 c 39.9,-50.71 82.66,-89.1 128.31,-115.11 45.65,-26.04 82,-39.06 109.05,-39.06 z m -677.63,773 c 46.65,0 91.11,11.5 133.4,34.49 42.25,23 76.73,58.86 103.47,107.56 26.71,48.66 40.07,111.58 40.07,188.66 0,77.09 -11.67,140 -35,188.7 -23.34,48.71 -55.81,84.54 -97.38,107.53 -41.6,22.99 -89.79,34.49 -144.56,34.49 h -240.44 v -661.43 h 240.44" style="fill:#000000;fill-opacity:1;fill-rule:nonzero;stroke:none" id="path28"/><path d="m 6054.82,2768.19 h -456.5 v 24.33 c 18.27,0 36.51,4.39 54.79,13.21 18.27,8.78 33.63,22.33 46.15,40.59 12.5,18.23 18.77,41.56 18.77,69.98 V 4091 c 0,27.72 -6.27,50.38 -18.77,67.97 -12.52,17.6 -27.88,30.78 -46.15,39.58 -18.28,8.79 -36.52,13.18 -54.79,13.18 v 23.33 h 456.5 v -23.33 c -17.59,0 -35.86,-4.39 -54.78,-13.18 -18.94,-8.8 -34.66,-21.98 -47.18,-39.58 -12.52,-17.59 -18.77,-40.25 -18.77,-67.97 V 2916.3 c 0,-28.42 6.25,-51.75 18.77,-69.98 12.52,-18.26 28.24,-31.81 47.18,-40.59 18.92,-8.82 37.19,-13.21 54.78,-13.21 v -24.33" style="fill:#000000;fill-opacity:1;fill-rule:nonzero;stroke:none" id="path30"/><path d="m 7480.1,2767.19 h -538.67 v 24.33 c 18.27,0 34.82,5.58 49.72,16.74 14.87,11.16 22.31,26.9 22.31,47.18 0,19.6 -9.48,42.6 -28.41,68.97 l -412.86,575.19 -69,-75.08 -2.03,-405.76 c 0,-56.13 4.73,-100.93 14.22,-134.41 9.44,-33.49 28.4,-57.34 56.81,-71.51 28.39,-14.22 70.65,-21.32 126.79,-21.32 h 119.71 v -24.33 h -653.3 v 24.33 c 27.73,0 50.38,5.58 67.98,16.74 17.58,11.16 30.58,33.12 39.04,65.93 8.45,32.81 12.69,81 12.69,144.57 l 2.03,1073.28 c 0,27.72 -6.27,50.38 -18.77,67.94 -12.52,17.6 -27.9,30.76 -46.15,39.58 -18.27,8.78 -36.52,13.17 -54.79,13.17 v 23.33 h 456.51 v -23.33 c -17.6,0 -35.87,-4.39 -54.79,-13.17 -18.93,-8.82 -34.68,-21.98 -47.18,-39.58 -12.52,-17.56 -18.77,-40.22 -18.77,-67.94 v -611.72 l 396.66,437.23 c 29.06,31.1 55.6,65.26 79.62,102.46 24,37.17 36.01,71.33 36.01,102.47 0,26.34 -8.11,47.99 -24.33,64.92 -16.24,16.89 -48.37,25.33 -96.37,25.33 h -160.29 v 23.33 h 671.55 v -23.33 c -48.01,0 -97.89,-13.36 -149.62,-40.06 -51.73,-26.72 -104.49,-63.59 -158.25,-110.58 -53.78,-46.98 -108.73,-101.6 -164.85,-163.81 l -212.01,-233.35 521.41,-719.2 c 40.58,-50.75 83.51,-89.14 128.83,-115.14 45.3,-26.05 81.5,-39.07 108.55,-39.07 v -24.33" style="fill:#000000;fill-opacity:1;fill-rule:nonzero;stroke:none" id="path32"/><path d="m 9041.31,2768.19 h -474.75 v 24.33 c 20.95,0 39.56,6.78 55.78,20.32 16.24,13.5 24.36,32.78 24.36,57.81 0,15.55 -3.39,32.11 -10.14,49.71 l -111.6,281.01 h -572.13 c -37.89,-100.12 -56.8,-180.26 -56.8,-240.42 0,-32.48 6.58,-61.39 19.77,-86.76 13.18,-25.34 35.84,-45.31 67.97,-59.82 32.11,-14.56 76.58,-21.85 133.4,-21.85 h 103.46 v -24.33 H 7571.4 v 24.33 c 48.7,0 91.63,13.36 128.83,40.08 37.19,26.71 70.34,63.43 99.41,110.09 29.08,46.65 55.13,101.08 78.11,163.32 l 333.76,888.63 c -28.39,70.32 -63.75,120.02 -106.01,149.12 -42.28,29.09 -99.93,43.64 -172.96,43.64 v 23.32 h 169.41 c 54.09,0 96.88,2.01 128.31,6.07 31.47,4.06 61.04,10.15 88.77,18.27 h 33.49 l 102.44,-266.8 410.85,-1037.74 c 19.61,-44.65 47.01,-78.8 82.17,-102.46 35.16,-23.7 66.28,-35.54 93.33,-35.54 z m -530.54,468.67 -278.97,707.08 -265.77,-707.08 z" style="fill:#000000;fill-opacity:1;fill-rule:nonzero;stroke:none" id="path34"/><path d="M 5150.12,4541.41 H 4816.5 v 11.87 c 8.92,0 17.83,2.14 26.73,6.44 8.92,4.29 16.41,10.71 22.52,19.3 6.11,8.59 9.16,19.48 9.16,32.68 l -2.47,575.17 c 0,13.52 -3.06,24.58 -9.15,33.16 -6.11,8.59 -13.62,15.01 -22.52,19.32 -8.92,4.28 -17.83,6.43 -26.74,6.43 v 11.38 h 280.66 c 47.19,0 89.67,-4.38 127.46,-13.11 37.78,-8.75 67.81,-25 90.09,-48.76 22.27,-23.76 34.06,-57.75 35.39,-101.97 0,-24.09 -4.78,-44.22 -14.35,-60.4 -16.51,-29.03 -47.53,-55.26 -93.07,-78.7 -22.11,-11.21 -45.04,-22.27 -68.8,-33.16 59.72,-4.29 109.06,-19.97 148.01,-47.02 46.19,-31.68 69.29,-78.21 69.29,-139.59 0,-49.5 -10.39,-88.28 -31.18,-116.33 -20.79,-28.04 -49.18,-47.85 -85.14,-59.39 -35.97,-11.55 -76.73,-17.32 -122.27,-17.32 z m -169.77,264.32 c 19.8,28.04 41.32,52.55 64.59,73.5 23.26,20.95 46.11,40.01 68.56,57.19 22.44,17.13 42.81,34.05 61.13,50.72 18.32,16.66 33,34.73 44.05,54.2 11.06,19.47 16.58,42.25 16.58,68.32 v 4.93 c -0.66,83.5 -47.51,125.25 -140.57,125.25 h -116.82 z m 169.77,-252.45 c 34.32,0 64.1,17.25 89.36,51.74 25.24,34.47 37.86,77.62 37.86,129.43 0,48.84 -11.06,89.18 -33.16,121.02 -22.11,31.84 -54.13,50.09 -96.04,54.7 -33.65,-15.18 -65.33,-32.75 -95.03,-52.7 -29.7,-19.97 -53.95,-45.14 -72.76,-75.51 v -228.68 h 169.77" style="fill:#000000;fill-opacity:1;fill-rule:nonzero;stroke:none" id="path36"/><path d="m 5780.24,4541.41 h -223.23 v 11.87 c 8.91,0 17.9,2.14 26.97,6.44 9.08,4.29 16.67,10.71 22.78,19.3 6.1,8.59 9.15,19.48 9.15,32.68 l 0.5,265.32 -158.9,300.95 c -14.52,22.42 -31.35,39.41 -50.48,50.98 -19.14,11.54 -34.98,17.31 -47.52,17.31 v 11.39 h 251.95 v -11.39 c -10.24,0 -19.89,-3.46 -28.96,-10.38 -9.08,-6.93 -13.61,-16.67 -13.61,-29.21 0,-6.28 1.64,-13.36 4.94,-21.27 l 142.07,-268.79 66.82,126.22 c 30.03,56.1 45.04,100.81 45.04,134.14 0,20.46 -7.67,37.13 -23.01,50 -15.35,12.87 -39.68,19.29 -73.01,19.29 h -48.51 v 11.39 h 312.34 v -11.39 c -24.43,0 -46.7,-7.58 -66.83,-22.76 -20.13,-15.17 -38.94,-35.47 -56.43,-60.89 -17.49,-25.41 -34.64,-54.28 -51.48,-86.61 l -98.99,-187.6 -0.5,-276.7 c 0,-13.2 3.05,-24.09 9.16,-32.68 6.1,-8.59 13.69,-15.01 22.77,-19.3 9.07,-4.3 18.07,-6.44 26.97,-6.44 v -11.87" style="fill:#000000;fill-opacity:1;fill-rule:nonzero;stroke:none" id="path38"/></g></g></svg>