<svg version="1.1" id="svg2" xml:space="preserve" viewBox="0 460.8 1414.08 518.4" xmlns="http://www.w3.org/2000/svg" style="max-height: 500px" width="1414.08" height="518.4"><metadata id="metadata8">image/svg+xml</metadata><defs id="defs6"/><g id="g10" transform="matrix(1.3333333,0,0,-1.3333333,0,1440)"><g id="g12" transform="scale(0.1)"><path d="m 2398.26,4537.17 c -87.54,18.79 -196.93,28.16 -328.24,28.16 h -878.08 v 28.13 c 21.12,0 42.2,5.08 63.31,15.25 21.1,10.16 38.87,25.37 53.34,45.7 14.45,20.3 21.69,46.1 21.69,77.41 v 1362.2 c 0,32.03 -7.24,58.23 -21.69,78.56 -14.47,20.29 -32.24,35.56 -53.34,45.7 -21.11,10.16 -42.19,15.27 -63.31,15.27 v 26.96 h 527.55 v -26.96 c -20.33,0 -41.44,-5.11 -63.31,-15.27 -21.88,-10.14 -40.07,-25.41 -54.51,-45.7 -14.47,-20.33 -21.69,-46.53 -21.69,-78.56 v -1486.5 h 215.7 c 158.66,0 238.37,68.4 239.16,205.18 0,50 -6.64,95.91 -19.92,137.75 -13.31,41.78 -31.65,83.4 -55.11,124.84 l -89.1,157.07 h 48.07 c 42.2,-75.8 95.56,-162.34 160.03,-259.65 64.47,-97.3 127.59,-184.06 189.32,-260.25 61.72,-76.23 109.8,-120.6 144.19,-133.07 l -14.06,-42.22" style="fill:#ffffff;fill-opacity:1;fill-rule:nonzero;stroke:none" id="path14"/><path d="m 3113.38,4539.53 c -114.88,0 -222.74,17.6 -323.56,52.76 -100.8,35.17 -189.33,88.32 -265.51,159.43 -76.21,71.11 -136,160.8 -179.38,269.06 -43.37,108.22 -65.06,235.06 -65.06,380.43 0,146.13 21.69,273.15 65.06,380.98 43.38,107.87 103.17,197.34 179.38,268.45 76.18,71.12 164.71,124.26 265.51,159.44 100.82,35.17 208.68,52.75 323.56,52.75 114.91,0 222.76,-17.58 323.56,-52.75 100.82,-35.18 189.36,-88.32 265.54,-159.44 76.21,-71.11 136,-160.58 179.38,-268.45 43.36,-107.83 65.05,-234.85 65.05,-380.98 0,-145.37 -21.69,-272.21 -65.05,-380.43 -43.38,-108.26 -103.17,-197.95 -179.38,-269.06 -76.18,-71.11 -164.72,-124.26 -265.54,-159.43 -100.8,-35.16 -208.65,-52.76 -323.56,-52.76 z m 73.87,51.6 c 44.55,0 90.65,6.23 138.34,18.75 125.83,34.4 220.39,100.61 283.7,198.67 63.31,98.07 94.96,221 94.96,368.74 0,110.19 -18,232.87 -53.94,368.08 -57.83,212.62 -139.11,376.93 -243.83,492.99 -104.75,116.03 -227.06,174.08 -366.94,174.08 -44.54,0 -90.68,-6.27 -138.34,-18.75 -125.85,-35.17 -220.39,-101.97 -283.7,-200.49 -63.31,-98.45 -94.96,-221.17 -94.96,-368.08 0,-111.02 17.98,-233.28 53.93,-366.96 57.84,-212.57 139.1,-376.89 243.83,-492.95 104.74,-116.07 227.04,-174.08 366.95,-174.08" style="fill:#ffffff;fill-opacity:1;fill-rule:nonzero;stroke:none" id="path16"/><path d="m 5500.22,4564.12 h -622.49 v 28.17 c 21.1,0 40.25,6.46 57.45,19.35 17.17,12.89 25.78,31.04 25.78,54.51 0,22.66 -10.95,49.24 -32.81,79.73 l -479.49,669.39 h -9.39 l -3.5,-560.37 c 0,-64.92 5.46,-116.64 16.4,-155.33 10.95,-38.69 32.83,-66.27 65.65,-82.68 32.83,-16.38 81.67,-24.6 146.56,-24.6 h 138.33 v -28.17 h -755 v 28.17 c 32.06,0 58.22,6.46 78.56,19.35 20.31,12.89 35.36,38.26 45.15,76.19 9.75,37.91 14.63,93.6 14.63,167.07 l 3.53,1241.49 c 0,32.03 -7.25,58.22 -21.7,78.51 -14.46,20.33 -32.25,35.57 -53.33,45.74 -21.11,10.16 -42.2,15.24 -63.31,15.24 v 26.95 h 665.89 c 121.91,0 226.43,-13.67 313.58,-41.01 87.13,-27.35 153.97,-71.94 200.47,-133.64 46.5,-61.73 69.76,-144.59 69.76,-248.55 0,-99.24 -21.5,-179.55 -64.48,-240.9 -42.98,-61.37 -104.34,-106.5 -184.06,-135.39 -79.7,-28.95 -175.46,-44.55 -287.22,-46.91 l 460.74,-645.96 c 46.1,-58.61 95.53,-102.97 148.29,-133.03 52.75,-30.1 94.75,-45.15 126.01,-45.15 z m -783.09,893.32 c 53.91,0 105.29,13.28 154.16,39.86 48.82,26.57 88.68,68.01 119.57,124.3 30.87,56.23 46.31,128.95 46.31,218.03 0,89.08 -13.49,161.8 -40.44,218.07 -26.98,56.28 -64.49,97.69 -112.54,124.25 -48.07,26.59 -103.77,39.87 -167.06,39.87 h -277.86 v -764.38 h 277.86" style="fill:#ffffff;fill-opacity:1;fill-rule:nonzero;stroke:none" id="path18"/><path d="m 6156.74,4566.5 h -527.55 v 28.11 c 21.11,0 42.2,5.08 63.31,15.27 21.11,10.14 38.87,25.8 53.33,46.9 14.45,21.07 21.7,48.02 21.7,80.88 V 6095.2 c 0,32.03 -7.25,58.2 -21.7,78.55 -14.46,20.33 -32.22,35.55 -53.33,45.74 -21.11,10.14 -42.2,15.22 -63.31,15.22 v 26.97 h 527.55 v -26.97 c -20.33,0 -41.45,-5.08 -63.31,-15.22 -21.89,-10.19 -40.05,-25.41 -54.51,-45.74 -14.48,-20.35 -21.7,-46.52 -21.7,-78.55 V 4737.66 c 0,-32.86 7.22,-59.81 21.7,-80.88 14.46,-21.1 32.62,-36.76 54.51,-46.9 21.86,-10.19 42.98,-15.27 63.31,-15.27 v -28.11" style="fill:#ffffff;fill-opacity:1;fill-rule:nonzero;stroke:none" id="path20"/><path d="m 7803.85,4565.33 h -622.51 v 28.13 c 21.11,0 40.24,6.44 57.46,19.33 17.18,12.91 25.78,31.1 25.78,54.53 0,22.66 -10.95,49.22 -32.83,79.71 l -477.12,664.71 -79.73,-86.76 -2.34,-468.91 c 0,-64.88 5.46,-116.66 16.41,-155.35 10.93,-38.69 32.84,-66.25 65.66,-82.63 32.81,-16.43 81.65,-24.63 146.53,-24.63 h 138.34 v -28.13 h -754.98 v 28.13 c 32.03,0 58.21,6.44 78.56,19.33 20.31,12.91 35.34,38.28 45.12,76.19 9.76,37.93 14.66,93.62 14.66,167.09 l 2.35,1240.32 c 0,32.03 -7.25,58.22 -21.69,78.51 -14.48,20.33 -32.25,35.57 -53.34,45.74 -21.12,10.16 -42.2,15.24 -63.31,15.24 v 26.95 h 527.54 v -26.95 c -20.33,0 -41.44,-5.08 -63.31,-15.24 -21.88,-10.17 -40.06,-25.41 -54.51,-45.74 -14.47,-20.29 -21.69,-46.48 -21.69,-78.51 v -706.92 l 458.39,505.28 c 33.59,35.93 64.26,75.41 92.01,118.41 27.74,42.95 41.62,82.43 41.62,118.4 0,30.45 -9.37,55.47 -28.12,75.04 -18.76,19.51 -55.89,29.28 -111.38,29.28 H 6942.2 v 26.95 h 776.06 v -26.95 c -55.48,0 -113.11,-15.45 -172.9,-46.31 -59.78,-30.88 -120.75,-73.48 -182.88,-127.79 -62.15,-54.3 -125.65,-117.42 -190.52,-189.3 l -245,-269.67 602.58,-831.15 c 46.89,-58.63 96.5,-103.01 148.87,-133.07 52.34,-30.09 94.18,-45.13 125.44,-45.13 v -28.13" style="fill:#ffffff;fill-opacity:1;fill-rule:nonzero;stroke:none" id="path22"/><path d="m 9608.06,4566.5 h -548.65 v 28.11 c 24.21,0 45.74,7.83 64.48,23.48 18.77,15.6 28.14,37.89 28.14,66.81 0,17.97 -3.91,37.11 -11.72,57.44 l -128.96,324.75 h -661.18 c -43.79,-115.7 -65.66,-208.32 -65.66,-277.83 0,-37.54 7.61,-70.94 22.85,-100.28 15.25,-29.27 41.43,-52.36 78.56,-69.14 37.11,-16.79 88.5,-25.23 154.16,-25.23 h 119.57 v -28.11 h -750.29 v 28.11 c 56.27,0 105.89,15.43 148.89,46.31 42.97,30.88 81.28,73.3 114.88,127.22 33.61,53.91 63.71,116.82 90.27,188.75 l 385.71,1026.94 c -32.82,81.27 -73.67,138.71 -122.51,172.32 -48.87,33.64 -115.49,50.45 -199.89,50.45 v 26.95 h 195.78 c 62.52,0 111.96,2.33 148.29,7.02 36.36,4.68 70.54,11.73 102.59,21.11 h 38.7 l 118.38,-308.32 474.8,-1199.28 c 22.66,-51.6 54.32,-91.05 94.96,-118.4 40.63,-27.4 76.59,-41.07 107.85,-41.07 z m -613.12,541.61 -322.39,817.12 -307.14,-817.12 z" style="fill:#ffffff;fill-opacity:1;fill-rule:nonzero;stroke:none" id="path24"/></g></g></svg>