<svg version="1.1" id="svg2" xml:space="preserve" viewBox="198.72000000000003 469.44 1048.09536 506.70143999999993" xmlns="http://www.w3.org/2000/svg" style="max-height: 500px" width="1048.09536" height="506.70143999999993"><metadata id="metadata8">image/svg+xml</metadata><defs id="defs6"/><g id="g10" transform="matrix(1.3333333,0,0,-1.3333333,0,1440)"><g id="g12" transform="scale(0.1)"><path d="m 2521.4,7279.71 h -687.44 c -93.15,0 -171.02,-31.38 -233.63,-93.97 -62.67,-62.67 -93.98,-140.57 -93.98,-233.6 V 3847.9 c 0,-93.16 31.31,-171.02 93.98,-233.6 62.61,-62.73 140.48,-94.02 233.63,-94.02 h 687.44 c 93.05,0 170.93,31.29 233.62,94.02 62.6,62.58 93.98,140.44 93.98,233.6 v 3104.24 c 0,93.03 -31.38,170.93 -93.98,233.6 -62.69,62.59 -140.57,93.97 -233.62,93.97 z M 2311.93,4111.06 c 0,-35.85 -8.96,-62.67 -26.84,-80.58 -17.96,-17.94 -42.97,-26.83 -75.19,-26.83 h -59.08 c -35.83,0 -62.68,8.89 -80.56,26.83 -17.96,17.91 -26.85,44.73 -26.85,80.58 v 2577.91 c 0,35.72 8.89,62.59 26.85,80.54 17.88,17.9 44.73,26.88 80.56,26.88 h 59.08 c 35.74,0 61.76,-8.98 77.87,-26.88 16.11,-17.95 24.16,-44.82 24.16,-80.54 V 4111.06" style="fill:#333132;fill-opacity:1;fill-rule:nonzero;stroke:none" id="path14"/><path d="m 4186.27,7279.71 h -155.74 c -93.16,0 -162.97,-9.87 -209.46,-29.5 -33.07,-14.01 -70.72,-40.44 -112.78,-78.78 v 108.28 H 3171.23 V 3520.28 h 537.06 v 2953.84 102.05 c 0,32.23 4.44,59.9 13.43,83.25 8.9,23.27 25.93,47.42 51.02,72.5 l 16.11,16.12 c 17.88,17.86 36.67,30.36 56.38,37.58 19.65,7.14 38.44,10.77 56.4,10.77 h 5.37 c 21.49,0 38.44,-8.09 51.03,-24.2 12.5,-16.12 18.79,-36.74 18.79,-61.74 V 3520.28 h 537.06 v 3431.86 c 0,93.03 -31.38,170.93 -93.98,233.6 -62.68,62.59 -140.56,93.97 -233.63,93.97" style="fill:#333132;fill-opacity:1;fill-rule:nonzero;stroke:none" id="path16"/><path d="m 4782.4,6796.39 h 359.84 V 3520.28 h 537.06 v 3276.11 h 338.34 v 483.32 H 4782.4 v -483.32" style="fill:#333132;fill-opacity:1;fill-rule:nonzero;stroke:none" id="path18"/><path d="m 7301.16,7279.71 h -687.43 c -93.14,0 -171.02,-31.38 -233.63,-93.97 -62.68,-62.67 -93.98,-140.57 -93.98,-233.6 V 3847.9 c 0,-93.16 31.3,-171.02 93.98,-233.6 62.61,-62.73 140.49,-94.02 233.63,-94.02 h 687.43 c 93.07,0 170.94,31.29 233.63,94.02 62.6,62.58 93.98,140.44 93.98,233.6 v 3104.24 c 0,93.03 -31.38,170.93 -93.98,233.6 -62.69,62.59 -140.56,93.97 -233.63,93.97 z M 7091.71,4111.06 c 0,-35.85 -8.98,-62.67 -26.86,-80.58 -17.95,-17.94 -42.96,-26.83 -75.18,-26.83 h -59.08 c -35.82,0 -62.68,8.89 -80.55,26.83 -17.96,17.91 -26.86,44.73 -26.86,80.58 v 2577.91 c 0,35.72 8.9,62.59 26.86,80.54 17.87,17.9 44.73,26.88 80.55,26.88 h 59.08 c 35.75,0 61.77,-8.98 77.88,-26.88 16.1,-17.95 24.16,-44.82 24.16,-80.54 V 4111.06" style="fill:#333132;fill-opacity:1;fill-rule:nonzero;stroke:none" id="path20"/><path d="m 9199.67,7185.74 c -62.69,62.59 -140.56,93.97 -233.63,93.97 H 7951 V 3520.28 h 537.07 v 1396.37 h 477.97 c 93.07,0 170.94,31.29 233.63,94.01 62.6,62.59 93.98,140.44 93.98,233.61 v 1707.87 c 0,93.03 -31.38,170.93 -93.98,233.6 z M 8756.59,5507.42 c 0,-35.84 -8.97,-62.67 -26.85,-80.57 -17.96,-17.94 -42.97,-26.83 -75.19,-26.83 h -166.48 v 1396.37 h 161.11 c 39.36,0 67.13,-8.09 83.24,-24.2 16.12,-16.12 24.17,-43.88 24.17,-83.22 V 5507.42" style="fill:#333132;fill-opacity:1;fill-rule:nonzero;stroke:none" id="path22"/></g></g></svg>