<!DOCTYPE svg PUBLIC "-//W3C//DTD SVG 1.1//EN" "http://www.w3.org/Graphics/SVG/1.1/DTD/svg11.dtd">
<!-- Uploaded to: SVG Repo, www.svgrepo.com, Transformed by: SVG Repo Mixer Tools -->
<svg fill="#ffffff" width="800px" height="800px" viewBox="0 0 512 512" xmlns="http://www.w3.org/2000/svg" transform="matrix(-1, 0, 0, 1, 0, 0)" stroke="#ffffff">
<g id="SVGRepo_bgCarrier" stroke-width="0"/>
<g id="SVGRepo_tracerCarrier" stroke-linecap="round" stroke-linejoin="round"/>
<g id="SVGRepo_iconCarrier">
<title>ionicons-v5-d</title>
<circle cx="176" cy="416" r="32"/>
<circle cx="400" cy="416" r="32"/>
<path d="M456.8,120.78A23.92,23.92,0,0,0,438.24,112H133.89l-6.13-34.78A16,16,0,0,0,112,64H48a16,16,0,0,0,0,32H98.58l45.66,258.78A16,16,0,0,0,160,368H416a16,16,0,0,0,0-32H173.42l-5.64-32H409.44A24.07,24.07,0,0,0,433,284.71l28.8-144A24,24,0,0,0,456.8,120.78Z"/>
</g>
</svg>